<?xml version="1.0" standalone="no"?>
<!DOCTYPE svg PUBLIC "-//W3C//DTD SVG 20010904//EN"
 "http://www.w3.org/TR/2001/REC-SVG-20010904/DTD/svg10.dtd">
<svg version="1.0" xmlns="http://www.w3.org/2000/svg"
 width="700.000000pt" height="700.000000pt" viewBox="0 0 700.000000 700.000000"
 preserveAspectRatio="xMidYMid meet">
<metadata>
Created by potrace 1.14, written by Peter Selinger 2001-2017
</metadata>
<g transform="translate(0.000000,700.000000) scale(0.100000,-0.100000)"
fill="#000000" stroke="none">
<path d="M1328 6562 c-14 -3 -16 -24 -16 -160 0 -86 -1 -184 -1 -217 l-1 -61
-107 1 -108 0 0 -1203 0 -1202 -45 -1 c-25 0 -124 0 -221 1 l-175 1 0 -328 1
-328 108 -3 c59 -1 107 -6 107 -10 0 -4 1 -151 3 -327 l2 -319 107 0 c89 1
107 -2 110 -15 2 -9 3 -106 3 -216 l-1 -200 -327 -3 c-251 -2 -327 -5 -328
-15 0 -6 -1 -56 -1 -109 l-1 -98 -108 0 -109 0 0 -110 0 -110 328 0 328 0 -2
-102 c-1 -57 -2 -106 -3 -110 0 -4 -61 -7 -133 -7 -73 0 -171 0 -218 0 l-85
-1 2 -102 c1 -57 2 -106 2 -109 1 -4 98 -6 216 -5 118 0 216 -2 216 -6 1 -5 2
-54 3 -110 l1 -103 327 0 327 0 3 -110 3 -109 655 -1 654 0 1 -109 0 -109 655
0 655 0 0 106 c0 64 4 108 10 108 5 1 296 3 645 4 349 2 641 3 648 4 9 1 12
30 12 109 l0 107 318 0 c174 -1 322 0 327 2 6 2 10 45 10 108 -1 87 2 105 15
106 8 0 106 1 218 2 176 0 202 3 203 16 4 78 3 185 -2 193 -4 7 -87 11 -220
12 l-213 1 -1 108 -1 107 327 0 327 0 4 73 c2 39 2 89 0 110 l-3 37 -108 0
-108 0 -1 98 c0 53 -1 103 -1 110 -1 9 -73 12 -325 12 -250 0 -325 3 -328 13
-3 9 -2 392 1 418 1 4 43 7 94 7 50 0 99 0 107 1 13 1 16 42 17 309 1 169 2
315 2 325 1 15 13 17 109 17 l108 0 -1 328 0 327 -175 2 c-96 1 -195 2 -220 2
l-45 1 0 1202 0 1203 -102 0 c-56 0 -104 3 -108 7 -3 3 -6 101 -7 217 0 189
-2 211 -16 212 -22 1 -173 1 -189 0 -9 -1 -13 -33 -15 -108 l-3 -108 -105 0
-105 0 -5 -110 -5 -110 -100 -1 c-55 -1 -103 -2 -107 -3 -5 0 -8 -48 -8 -106
0 -77 -3 -105 -12 -106 -7 -1 -51 -2 -98 -3 -47 -2 -90 -3 -97 -4 -9 -2 -12
-31 -11 -102 0 -56 -2 -104 -6 -107 -3 -3 -51 -6 -106 -5 -55 0 -101 -2 -101
-6 -1 -4 -3 -52 -4 -107 l-1 -100 -220 0 -219 0 0 105 0 105 -653 1 c-471 1
-652 -2 -654 -10 0 -6 -2 -47 -3 -91 -2 -44 -3 -88 -4 -97 -1 -17 -18 -18
-218 -18 l-218 0 0 107 0 108 -103 2 c-57 1 -106 4 -109 7 -3 3 -6 52 -7 108
l-1 103 -95 1 c-52 1 -101 2 -107 3 -10 1 -13 29 -13 106 0 77 -3 105 -12 106
-7 1 -56 2 -108 3 l-95 1 -5 110 -5 110 -107 -1 -108 0 0 108 c0 79 -3 108
-12 109 -51 3 -177 3 -190 1z"/>
</g>
</svg>
